#!OML:ASF E:\Steps\Project 1\Capture day 1\Session 2\Subject.ASF
:FULLY-SPECIFIED
:DEGREES
285
root 3.91967 18.7341 16.4192 -159.966 3.57156 -186.089
lowerback -24.0296 -2.92076 -11.9519
upperback -1.32231 0.292877 -1.87232
thorax 12.0374 -0.196677 4.85846
lowerneck -2.78253 -1.74988 -0.784676
upperneck 14.0749 -2.05627 2.61788
head 4.7087 -0.651203 0.856338
rclavicle 8.44835e-016 2.8625e-014
rhumerus -43.0932 -19.7299 -73.408
rradius 30.0803
rwrist 1.00147
rhand -8.12228 -54.4191
rfingers 7.12502
rthumb 17.7912 -83.6252
lclavicle 8.44835e-016 2.8625e-014
lhumerus -30.7134 13.0716 74.0813
lradius 15.9345
lwrist -10.6313
lhand -20.1521 -12.8517
lfingers 7.12502
lthumb 6.193 17.0378
rfemur -18.2145 1.85786 16.8571
rtibia 4.94892
rfoot -15.1977 3.38873
rtoes -10.4342
lfemur -15.9194 -7.83203 -27.7557
ltibia 5.84412
lfoot -7.42057 1.09354
ltoes -41.9904
286
root 3.91803 18.7333 16.4076 -159.882 3.58969 -185.953
lowerback -24.1731 -2.93606 -11.783
upperback -1.37839 0.225995 -1.75312
thorax 12.0596 -0.222393 4.87781
lowerneck -2.5269 -1.71318 -0.911855
upperneck 12.7471 -2.02833 2.47885
head 4.72057 -0.702577 0.923573
rclavicle -3.37934e-015 3.53837e-014
rhumerus -42.9717 -19.6959 -73.3292
rradius 29.9801
rwrist 1.13505
rhand -8.04442 -54.6788
rfingers 7.12502
rthumb 17.8661 -83.8782
lclavicle -3.37934e-015 3.53837e-014
lhumerus -30.7463 13.7133 73.9574
lradius 15.5071
lwrist -11.6853
lhand -20.1349 -12.8938
lfingers 7.12502
lthumb 6.20957 16.9951
rfemur -18.2614 2.05397 16.9877
rtibia 4.95089
rfoot -15.2568 3.21215
rtoes -10.6304
lfemur -15.9852 -7.96538 -27.5612
ltibia 5.83444
lfoot -7.37038 1.15719
ltoes -40.8841
287
root 3.9175 18.7321 16.3967 -159.816 3.62761 -185.849
lowerback -24.3351 -2.94565 -11.6512
upperback -1.41907 0.18277 -1.64734
thorax 12.1063 -0.240488 4.91061
lowerneck -2.96662 -1.60717 -1.19563
upperneck 12.9686 -1.88528 2.59988
head 4.89595 -0.636905 1.02347
rclavicle -2.93207e-015 4.96962e-014
rhumerus -42.8774 -19.491 -73.3481
rradius 29.9359
rwrist 1.0762
rhand -8.19037 -54.6453
rfingers 7.12502
rthumb 17.7257 -83.8574
lclavicle -2.93207e-015 4.96962e-014
lhumerus -30.8106 14.2493 73.8827
lradius 15.2509
lwrist -12.4612
lhand -19.9267 -13.2739
lfingers 7.12502
lthumb 6.41059 16.6091
rfemur -18.2616 2.26857 17.0775
rtibia 4.90941
rfoot -15.2674 2.95617
rtoes -10.8922
lfemur -16.0213 -7.80347 -27.4632
ltibia 5.81715
lfoot -7.24676 0.952439
ltoes -40.5681
288
root 3.91848 18.7323 16.3881 -159.772 3.59728 -185.747
lowerback -24.403 -2.92147 -11.5173
upperback -1.47613 0.182898 -1.61424
thorax 12.0759 -0.228592 4.87394
lowerneck -2.38542 -1.57712 -0.968775
upperneck 12.0044 -1.87984 2.4383
head 4.41652 -0.664168 0.921342
rclavicle 2.00773e-014 -8.11041e-014
rhumerus -42.886 -19.4012 -73.4465
rradius 29.9014
rwrist 0.928489
rhand -8.216 -54.2181
rfingers 7.12502
rthumb 17.701 -83.4324
lclavicle 2.00773e-014 -8.11041e-014
lhumerus -30.7925 14.952 73.6051
lradius 14.8423
lwrist -13.8082
lhand -19.9794 -13.3404
lfingers 7.12502
lthumb 6.35967 16.5442
rfemur -18.2509 2.36044 17.2017
rtibia 4.9242
rfoot -15.2776 2.76083
rtoes -11.1212
lfemur -16.0494 -7.55792 -27.3659
ltibia 5.83163
lfoot -7.14262 0.679158
ltoes -40.2749
289
root 3.91847 18.7338 16.3798 -159.757 3.53173 -185.653
lowerback -24.4172 -2.90552 -11.3782
upperback -1.53929 0.166437 -1.60176
thorax 12.0119 -0.220719 4.80489
lowerneck -2.17673 -1.68845 -0.8321
upperneck 11.6589 -2.04434 2.36936
head 4.24956 -0.753943 0.864669
rclavicle -1.98785e-016 1.90833e-014
rhumerus -42.8775 -19.466 -73.528
rradius 29.8059
rwrist 0.945564
rhand -7.93414 -53.8998
rfingers 7.12502
rthumb 17.9722 -83.0895
lclavicle -1.98785e-016 1.90833e-014
lhumerus -30.7848 15.6227 73.2853
lradius 14.3822
lwrist -15.1911
lhand -20.0375 -13.3135
lfingers 7.12502
lthumb 6.30363 16.5727
rfemur -18.2137 2.33284 17.3353
rtibia 4.91779
rfoot -15.3634 2.83798
rtoes -11.3999
lfemur -16.0386 -7.58023 -27.2363
ltibia 5.82883
lfoot -7.14881 0.756996
ltoes -39.6859
290
root 3.91682 18.7342 16.3709 -159.698 3.59324 -185.567
lowerback -24.5408 -2.93588 -11.2539
upperback -1.59313 0.0963331 -1.51431
thorax 12.0268 -0.24724 4.81149
lowerneck -2.19417 -1.76849 -0.978957
upperneck 11.4772 -2.16044 2.39191
head 4.19265 -0.825262 0.891801
rclavicle 8.44835e-016 -4.21423e-014
rhumerus -42.6823 -19.3121 -73.6033
rradius 29.6648
rwrist 0.923132
rhand -7.72667 -53.7549
rfingers 7.12502
rthumb 18.1718 -82.9261
lclavicle 8.44835e-016 -4.21423e-014
lhumerus -30.8516 15.8471 73.2916
lradius 14.1527
lwrist -15.784
lhand -19.953 -13.4982
lfingers 7.12502
lthumb 6.38519 16.3856
rfemur -18.269 2.3681 17.4205
rtibia 4.94024
rfoot -15.4261 3.03151
rtoes -11.1338
lfemur -16.0541 -7.68756 -27.1248
ltibia 5.82457
lfoot -7.2496 1.0134
ltoes -39.0082
291
root 3.91411 18.7346 16.3602 -159.613 3.68803 -185.486
lowerback -24.7716 -2.93551 -11.1248
upperback -1.61907 0.081932 -1.43024
thorax 12.1235 -0.253572 4.8307
lowerneck -1.96476 -1.63505 -0.996843
upperneck 10.8163 -1.99371 2.22369
head 3.90484 -0.774675 0.842727
rclavicle -1.55549e-014 4.85035e-014
rhumerus -42.4986 -19.1262 -73.6651
rradius 29.6342
rwrist 0.753005
rhand -7.60637 -53.7715
rfingers 7.12502
rthumb 18.2876 -82.9319
lclavicle -1.55549e-014 4.85035e-014
lhumerus -30.8604 15.7438 73.5285
lradius 14.0697
lwrist -16.1226
lhand -20.2493 -13.5263
lfingers 7.12502
lthumb 6.09911 16.366
rfemur -18.3718 2.43152 17.4863
rtibia 5.02409
rfoot -15.4951 3.01129
rtoes -11.2198
lfemur -16.0633 -7.75265 -27.0469
ltibia 5.80972
lfoot -7.37058 1.22007
ltoes -39.5617
292
root 3.91202 18.7366 16.3521 -159.534 3.70073 -185.4
lowerback -24.9559 -2.90539 -10.9933
upperback -1.64243 0.103152 -1.37392
thorax 12.192 -0.240695 4.82918
lowerneck -2.25636 -1.62579 -0.914526
upperneck 10.9993 -1.97079 2.04596
head 4.02252 -0.765124 0.769437
rclavicle 1.28713e-014 -2.42517e-014
rhumerus -42.3985 -19.1231 -73.6888
rradius 29.6548
rwrist 0.69351
rhand -7.43834 -54.0142
rfingers 7.12502
rthumb 18.4492 -83.1593
lclavicle 1.28713e-014 -2.42517e-014
lhumerus -30.8462 15.2976 73.9003
lradius 14.1524
lwrist -16.0686
lhand -20.361 -13.5271
lfingers 7.12502
lthumb 5.99132 16.3682
rfemur -18.4519 2.46186 17.5802
rtibia 5.08678
rfoot -15.539 2.90743
rtoes -11.5687
lfemur -16.085 -7.7646 -26.9521
ltibia 5.77362
lfoot -7.43107 1.25168
ltoes -40.434
293
root 3.91158 18.7386 16.3477 -159.428 3.6428 -185.292
lowerback -25.0942 -2.92777 -10.8673
upperback -1.66929 0.0448841 -1.29091
thorax 12.2441 -0.264989 4.8332
lowerneck -1.8928 -1.52076 -0.85902
upperneck 10.0321 -1.85095 1.78967
head 3.60241 -0.745154 0.676808
rclavicle -6.65929e-015 -1.94809e-014
rhumerus -42.2091 -19.1321 -73.764
rradius 29.6286
rwrist 0.704312
rhand -7.35366 -54.3191
rfingers 7.12502
rthumb 18.5307 -83.4565
lclavicle -6.65929e-015 -1.94809e-014
lhumerus -30.88 14.8736 74.2179
lradius 14.3285
lwrist -15.7816
lhand -20.065 -13.2938
lfingers 7.12502
lthumb 6.27708 16.5932
rfemur -18.6458 2.66553 17.6927
rtibia 5.32728
rfoot -15.6018 2.66784
rtoes -11.2025
lfemur -16.2246 -7.71538 -26.7951
ltibia 5.84125
lfoot -7.40562 0.982587
ltoes -39.2924
294
root 3.91091 18.7395 16.339 -159.357 3.54371 -185.226
lowerback -25.2441 -2.98505 -10.7764
upperback -1.67796 -0.0459218 -1.2149
thorax 12.3293 -0.308231 4.83727
lowerneck -2.03325 -1.58135 -1.00937
upperneck 9.86371 -1.95207 1.9313
head 3.57661 -0.802606 0.744568
rclavicle -1.21756e-014 -1.11319e-014
rhumerus -42.0147 -18.9438 -73.9314
rradius 29.6614
rwrist 0.519236
rhand -7.48088 -54.5296
rfingers 7.12502
rthumb 18.4083 -83.6786
lclavicle -1.21756e-014 -1.11319e-014
lhumerus -30.9224 14.3649 74.559
lradius 14.5113
lwrist -15.4057
lhand -19.9359 -12.8641
lfingers 7.12502
lthumb 6.40168 17.0192
rfemur -18.5032 2.62489 17.7829
rtibia 5.01536
rfoot -15.4627 2.62919
rtoes -11.016
lfemur -16.3067 -7.76595 -26.6858
ltibia 5.89601
lfoot -7.33479 0.80126
ltoes -37.5527
295
root 3.90891 18.7392 16.3285 -159.287 3.46658 -185.126
lowerback -25.4399 -2.99863 -10.6099
upperback -1.69011 -0.0939117 -1.14604
thorax 12.4278 -0.327593 4.80538
lowerneck -2.28417 -1.4824 -1.19478
upperneck 10.0066 -1.82126 2.06241
head 3.67763 -0.737443 0.824998
rclavicle -4.47266e-015 -3.97569e-015
rhumerus -41.9476 -18.6222 -74.1064
rradius 29.8234
rwrist 0.281074
rhand -7.63862 -54.5177
rfingers 7.12502
rthumb 18.2565 -83.6809
lclavicle -4.47266e-015 -3.97569e-015
lhumerus -30.9437 13.7743 74.9667
lradius 14.6537
lwrist -15.0765
lhand -20.2621 -12.7033
lfingers 7.12502
lthumb 6.0868 17.1893
rfemur -18.4935 2.61394 17.9072
rtibia 4.95643
rfoot -15.5299 2.61094
rtoes -11.3321
lfemur -16.3478 -7.7463 -26.5698
ltibia 5.88688
lfoot -7.3083 0.785617
ltoes -37.9405
296
root 3.90743 18.7364 16.32 -159.182 3.41557 -184.911
lowerback -25.7308 -2.95292 -10.3432
upperback -1.67153 -0.0879679 -1.0547
thorax 12.6041 -0.324637 4.76122
lowerneck -2.95599 -1.57627 -0.862111
upperneck 10.9509 -1.87275 1.34621
head 4.13 -0.75988 0.526536
rclavicle -1.29459e-014 3.93594e-014
rhumerus -41.8493 -18.463 -74.2309
rradius 29.963
rwrist 0.0822749
rhand -7.6135 -54.3753
rfingers 7.12502
rthumb 18.2807 -83.5363
lclavicle -1.29459e-014 3.93594e-014
lhumerus -30.8639 13.5545 75.2577
lradius 14.6861
lwrist -15.0951
lhand -20.5581 -12.9749
lfingers 7.12502
lthumb 5.80095 16.9256
rfemur -18.61 2.74202 18.1474
rtibia 5.06086
rfoot -15.6339 2.54959
rtoes -11.2384
lfemur -16.4571 -7.65881 -26.324
ltibia 5.97724
lfoot -7.41256 0.764279
ltoes -39.0376
